<svg width="50" height="50" viewBox="0 0 50 50" fill="none" xmlns="http://www.w3.org/2000/svg">
<path fill-rule="evenodd" clip-rule="evenodd" d="M28.4998 8.51678C31.8869 4.73903 50 0 50 0C50 0 46.9211 18.8976 44.2115 21.9198C42.2949 24.0576 36.3992 22.8958 33.1128 22.0329C31.6701 24.2613 30.4503 26.7287 29.8127 29.3027C29.5929 30.1903 28.6177 30.6311 27.6347 30.2871C26.6516 29.9431 26.0329 28.9447 26.2526 28.0573C26.9891 25.0837 28.3786 22.3011 29.9749 19.8492C28.5188 17.1018 25.973 11.335 28.4998 8.51678ZM8.08395 32.2581H0V50H8.08395V46.9252C9.3919 46.8813 10.7539 46.8469 11.3335 46.8692C14.1053 46.9761 16.1753 47.6058 18.2682 48.2426C20.2207 48.8366 22.1934 49.4368 24.7745 49.624C25.4232 49.671 26.0544 49.7318 26.6663 49.7906C28.8766 50.0032 30.8357 50.1916 32.455 49.624C34.5229 48.899 46.3392 43.3897 47.8163 41.9398C49.2933 40.49 48.5548 36.5753 43.976 37.3003C41.7166 37.6579 39.0978 38.6865 36.7225 39.619C34.284 40.5766 32.1023 41.4332 30.8303 41.3598C28.3194 41.2148 21.6727 40.055 21.6727 40.055L29.3042 40.1434C29.3042 40.1434 30.3823 40.1982 31.8642 39.1852C33.3461 38.1721 34.6706 35.2705 32.455 35.2705C30.2395 35.2705 27.8762 34.5456 27.8762 34.5456L18.4232 32.5158C18.4232 32.5158 15.1736 31.9358 13.8444 32.5158C13.0009 32.8837 10.0955 33.8937 8.08395 34.5829V32.2581ZM6.1022 7.23742C6.1022 7.23742 19.5456 10.7916 22.0593 13.625C23.8069 15.5948 22.285 19.485 21.195 21.6734C22.5067 23.78 23.6564 26.0779 24.4013 28.4729C24.6676 29.3285 24.1791 30.2358 23.3105 30.4994C22.4417 30.7629 21.5219 30.2827 21.2557 29.4271C20.6486 27.4755 19.719 25.5635 18.6305 23.7634C16.1904 24.4105 11.8199 25.2795 10.3984 23.6773C8.38738 21.4106 6.1022 7.23742 6.1022 7.23742ZM32.3156 19.3111C31.5663 18.8019 31.3819 17.7968 31.9039 17.0658C34.8708 12.9106 37.2286 10.22 38.8678 8.55194C39.6876 7.71774 40.3282 7.13887 40.7756 6.76048C40.9995 6.57113 41.1751 6.43194 41.3006 6.33597C41.3634 6.2879 41.4139 6.25081 41.4514 6.22355L41.4984 6.19L41.5146 6.17855L41.521 6.17419L41.5237 6.17242C41.5243 6.1721 41.526 6.17065 42.4698 7.48129L41.526 6.17065C42.2734 5.65871 43.3047 5.83452 43.8295 6.56339C44.3527 7.29 44.1754 8.29161 43.4345 8.80516L43.4231 8.81339C43.4085 8.82387 43.3807 8.84435 43.3401 8.87548C43.2586 8.93758 43.1254 9.04274 42.9421 9.19774C42.5753 9.50774 42.0083 10.0177 41.2551 10.7842C39.7486 12.3173 37.4983 14.8752 34.6175 18.9095C34.0955 19.6403 33.065 19.8202 32.3156 19.3111ZM19.3706 19.4832C19.8895 20.2174 19.7056 21.2281 18.9597 21.7405C18.214 22.2527 17.1888 22.0729 16.6699 21.3385C15.1326 19.1631 13.9409 17.7966 13.1567 16.9902C12.7648 16.5871 12.4749 16.3244 12.295 16.1706C12.2052 16.0937 12.1427 16.0442 12.1088 16.0179C12.0934 16.0061 12.0838 15.999 12.0802 15.9963C11.3482 15.4792 11.1749 14.4756 11.6948 13.7471C12.2178 13.0142 13.244 12.8371 13.9869 13.3515L13.0441 14.6726C13.9869 13.3515 13.9862 13.351 13.9869 13.3515L13.9892 13.3531L13.9917 13.3548L13.9971 13.3586L14.0099 13.3676L14.0431 13.3916C14.0687 13.4103 14.101 13.4345 14.14 13.4647C14.2179 13.5247 14.3224 13.6086 14.4524 13.7197C14.7126 13.9421 15.0754 14.2739 15.5334 14.745C16.4493 15.6868 17.7477 17.1865 19.3706 19.4832Z" fill="#1ABC9C"/>
</svg>
